<svg width="174" height="226" viewBox="0 0 174 226" fill="none" xmlns="http://www.w3.org/2000/svg">
<path d="M53.1593 93.1889C52.5382 93.4025 51.8724 93.5125 51.2 93.5125C22.923 93.5124 2.66031e-06 112.543 1.63418e-06 136.018L0 173.404C-1.23603e-07 176.231 2.29231 178.524 5.12 178.524H51.2C51.8724 178.524 52.5382 178.634 53.1593 178.847C53.7805 179.061 54.345 179.374 54.8204 179.769C55.2958 180.163 55.673 180.632 55.9303 181.148C56.1876 181.663 56.32 182.216 56.32 182.774C56.32 183.333 56.1876 183.885 55.9303 184.401C55.673 184.917 55.2958 185.385 54.8204 185.78C54.345 186.175 53.7805 186.488 53.1593 186.701C52.5381 186.915 51.8724 187.025 51.2 187.025H46.08C22.7139 187.025 3.40975 201.463 0.406021 220.179C-0.0420566 222.971 2.2923 225.28 5.12 225.28L168.96 225.28C171.788 225.28 174.099 222.981 173.897 220.161C170.709 175.594 126.164 140.269 71.68 140.269H51.2C50.5276 140.269 49.8619 140.159 49.2407 139.945C48.6195 139.732 48.0551 139.418 47.5796 139.024C47.1042 138.629 46.727 138.16 46.4697 137.645C46.2124 137.129 46.08 136.576 46.08 136.018C46.08 135.46 46.2124 134.907 46.4697 134.391C46.727 133.876 47.1042 133.407 47.5796 133.013C48.0551 132.618 48.6195 132.305 49.2407 132.091C49.8619 131.877 50.5276 131.768 51.2 131.768H168.96C171.788 131.768 174.099 129.469 173.897 126.648C170.709 82.0815 126.164 46.7562 71.68 46.7562L51.2 46.7562C50.5276 46.7562 49.8619 46.6463 49.2407 46.4327C48.6195 46.2191 48.0551 45.906 47.5796 45.5113C47.1042 45.1166 46.727 44.648 46.4697 44.1323C46.2124 43.6166 46.08 43.0639 46.08 42.5057C46.08 41.9475 46.2124 41.3947 46.4697 40.879C46.727 40.3633 47.1042 39.8948 47.5796 39.5001C48.0551 39.1054 48.6195 38.7923 49.2407 38.5787C49.8619 38.365 50.5276 38.2551 51.2 38.2551H97.28C100.108 38.2551 102.442 35.9464 101.994 33.1545C98.9903 14.4382 79.6861 1.24517e-06 56.32 2.23808e-07L51.2 0C22.923 -1.23602e-06 6.74787e-06 19.0304 5.72174e-06 42.5057L4.08756e-06 79.8913C3.96396e-06 82.719 2.29231 85.0113 5.12001 85.0113H51.2C51.8724 85.0113 52.5382 85.1213 53.1593 85.3349C53.7805 85.5485 54.345 85.8616 54.8204 86.2563C55.2958 86.651 55.673 87.1196 55.9303 87.6353C56.1876 88.151 56.32 88.7037 56.32 89.2619C56.32 89.8201 56.1876 90.3728 55.9303 90.8885C55.673 91.4042 55.2958 91.8728 54.8204 92.2675C54.345 92.6622 53.7805 92.9753 53.1593 93.1889Z" fill="black"/>
</svg>
